<?xml version="1.0" encoding="UTF-8"?>
<svg version="1.1" xmlns="http://www.w3.org/2000/svg" width="1024" height="1024">
<path d="M0 0 C10.72517993 7.81710876 13.77328219 25.65961225 16 38 C16.56406958 41.67830249 16.87695818 45.2819971 17 49 C17.03996094 50.05058594 17.07992187 51.10117187 17.12109375 52.18359375 C17.80283154 87.51365216 3.89560887 119.09836922 -19.875 144.80859375 C-23.08570729 148.11963564 -26.39013615 151.12865167 -30 154 C-30.49677246 154.39799805 -30.99354492 154.79599609 -31.50537109 155.20605469 C-48.31355213 168.52425511 -67.33777439 179.09117492 -89 181 C-88.83395264 181.99459229 -88.83395264 181.99459229 -88.66455078 183.00927734 C-81.57858082 225.69468847 -80.45860021 266.49887506 -87.58642578 309.27294922 C-87.96487221 311.76837226 -88.21852962 314.24017668 -88.43359375 316.75390625 C-88.81300141 320.42962419 -89.78805034 323.47735328 -91.17919922 326.88671875 C-92.08514296 329.21921401 -92.78666011 331.56251469 -93.47265625 333.96875 C-103.14489738 367.76794444 -119.5373368 396.9594559 -139 426 C-134.73069141 431.63352444 -129.54640827 435.68886831 -124 440 C-123.44376953 440.43650879 -122.88753906 440.87301758 -122.31445312 441.32275391 C-105.24620245 454.62312585 -86.09057021 464.64370028 -65.59375 471.54296875 C-64.94420853 471.76228058 -64.29466705 471.98159241 -63.6254425 472.20755005 C-60.37031185 473.30180143 -57.10989572 474.37323306 -53.83666992 475.41210938 C-52.03613159 476.00282227 -52.03613159 476.00282227 -50.19921875 476.60546875 C-49.12502686 476.94731201 -48.05083496 477.28915527 -46.9440918 477.64135742 C-43.51373408 479.22440251 -41.51430595 481.2108109 -39 484 C-38.67 484.33 -38.34 484.66 -38 485 C-36.95940558 491.98684822 -40.010688 496.42261655 -44 502 C-46.25 504.5625 -46.25 504.5625 -49 507 C-49.66257812 507.66515625 -50.32515625 508.3303125 -51.0078125 509.015625 C-71.44220933 528.84305955 -100.85147551 532.5909992 -128.12890625 532.19921875 C-150.79244635 531.60865015 -172.24736795 526.21859542 -193.26464844 517.77856445 C-196.03495769 516.6740002 -197.979225 516 -201 516 C-203 514 -203 514 -204 512 C-204.84304688 511.72414063 -205.68609375 511.44828125 -206.5546875 511.1640625 C-210.78023726 509.73638242 -214.31590816 507.66561414 -218.125 505.375 C-218.87491211 504.92769531 -219.62482422 504.48039062 -220.39746094 504.01953125 C-231.48202286 497.36025657 -241.87798583 490.02537972 -252 482 C-252.92683594 481.26910156 -253.85367187 480.53820312 -254.80859375 479.78515625 C-260.66135153 475.0876598 -266.2152353 470.12976218 -271.67382812 464.98486328 C-274.03765698 462.76383078 -276.29330401 460.804464 -279 459 C-279 458.34 -279 457.68 -279 457 C-279.88703613 456.59624146 -279.88703613 456.59624146 -280.79199219 456.18432617 C-283.00176589 454.99905282 -284.52035876 453.7758201 -286.328125 452.05078125 C-286.95477051 451.45773193 -287.58141602 450.86468262 -288.22705078 450.25366211 C-288.89462402 449.61307861 -289.56219727 448.97249512 -290.25 448.3125 C-291.68990476 446.94510249 -293.13001468 445.57792099 -294.5703125 444.2109375 C-295.30540039 443.5106543 -296.04048828 442.81037109 -296.79785156 442.08886719 C-298.89304659 440.1014516 -301.00132897 438.12944191 -303.1171875 436.1640625 C-310.3564451 429.43656519 -317.4829384 422.62929936 -324.39697266 415.56616211 C-327.44626505 412.46846093 -330.54659464 409.65693335 -334 407 C-335.8125 405.375 -335.8125 405.375 -337 404 C-337 403.34 -337 402.68 -337 402 C-337.56299805 401.76369873 -338.12599609 401.52739746 -338.70605469 401.28393555 C-341.5325491 399.70192894 -343.43604599 397.77135991 -345.703125 395.45703125 C-346.60160156 394.54759766 -347.50007813 393.63816406 -348.42578125 392.70117188 C-349.36756931 391.73865469 -350.30897355 390.77576181 -351.25 389.8125 C-361.15924378 379.56332633 -361.15924378 379.56332633 -372.1015625 370.46069336 C-374.51528815 368.60352765 -376.12619055 366.3959014 -378 364 C-384.30093832 357.33472171 -390.978124 351.14185201 -398.05078125 345.30859375 C-398.69402344 344.77363281 -399.33726562 344.23867188 -400 343.6875 C-400.5775 343.21699219 -401.155 342.74648438 -401.75 342.26171875 C-403 341 -403 341 -403 339 C-403.81791016 338.66162109 -403.81791016 338.66162109 -404.65234375 338.31640625 C-407.69819381 336.60850031 -410.0527816 334.32910442 -412.5625 331.9375 C-420.9078352 324.14546078 -429.81947219 317.10396096 -438.81469727 310.08374023 C-442.36898469 307.3047575 -445.85594502 304.4630689 -449.3125 301.5625 C-476.4905531 279.26459366 -507.92711155 261.74066809 -541 250 C-542.15757812 249.57332031 -543.31515625 249.14664063 -544.5078125 248.70703125 C-569.78940439 240.09280738 -600.37598008 237.47650174 -625.1875 248.5625 C-638.42947043 255.33061822 -647.05328612 264.94334409 -652 279 C-656.55994882 295.15952665 -655.04157104 310.83371584 -651 327 C-650.80277344 327.78890625 -650.60554688 328.5778125 -650.40234375 329.390625 C-641.05360903 365.88987673 -622.47161785 399.72354259 -596.58203125 427.109375 C-595 429 -595 429 -595 431 C-594.34 431 -593.68 431 -593 431 C-591.73046875 432.328125 -591.73046875 432.328125 -590.1875 434.25 C-564.09118339 464.8215114 -523.71753768 488.12373976 -486 501 C-484.68 501 -483.36 501 -482 501 C-482 501.66 -482 502.32 -482 503 C-481.35417969 503.15855469 -480.70835937 503.31710937 -480.04296875 503.48046875 C-479.10066406 503.71378906 -478.15835938 503.94710938 -477.1875 504.1875 C-476.07375 504.46207031 -474.96 504.73664063 -473.8125 505.01953125 C-471.21022952 505.6887627 -468.63974586 506.38502204 -466.0625 507.13671875 C-455.81999324 510.06868475 -445.50932589 512.06779799 -435 513.75 C-434.33809662 513.85673035 -433.67619324 513.96346069 -432.99423218 514.07342529 C-420.85920825 516.01417108 -409.10087067 517.16496877 -396.8125 517.0625 C-395.76513672 517.05798828 -394.71777344 517.05347656 -393.63867188 517.04882812 C-391.09238464 517.03720124 -388.5462254 517.02086281 -386 517 C-386 517.66 -386 518.32 -386 519 C-385.45529053 518.84168701 -384.91058105 518.68337402 -384.34936523 518.52026367 C-381.66966068 517.92684682 -379.15347874 517.78747605 -376.41015625 517.67578125 C-352.74722451 516.52487007 -329.44115005 513.34356827 -306 510 C-305.67 510.66 -305.34 511.32 -305 512 C-304.071875 512.12375 -304.071875 512.12375 -303.125 512.25 C-301 513 -301 513 -299.1875 515.6875 C-297.79530852 519.5709815 -297.55087794 521.13567452 -299 525 C-312.09016355 541.07635711 -343.31460094 543.56960852 -362.65625 545.62109375 C-387.39743421 548.01147891 -412.21115696 547.18116905 -437 546 C-437 545.34 -437 544.68 -437 544 C-438.10859375 544.03480469 -439.2171875 544.06960938 -440.359375 544.10546875 C-445.44167884 544.09989116 -450.26820559 543.25646568 -455.25 542.3125 C-456.20293945 542.13605957 -457.15587891 541.95961914 -458.13769531 541.77783203 C-466.31803512 540.2198651 -474.36990544 538.26246481 -482.421875 536.1484375 C-487.24231276 534.89799148 -492.10889487 533.92974599 -497 533 C-497 532.34 -497 531.68 -497 531 C-498.155 530.79375 -499.31 530.5875 -500.5 530.375 C-539.44092826 521.62695995 -577.63571168 496.03630525 -607.26171875 470.3359375 C-610.14939686 467.87255446 -613.11727376 465.59919349 -616.21875 463.4140625 C-618.67759152 461.46208743 -620.80268152 459.24046823 -623 457 C-623.80179688 456.20980469 -624.60359375 455.41960937 -625.4296875 454.60546875 C-630.51801586 449.57403863 -635.37370536 444.45616605 -640 439 C-641.23169922 437.58460938 -641.23169922 437.58460938 -642.48828125 436.140625 C-681.75890133 390.78870926 -708.47213844 331.96295876 -705 271 C-701.7928764 229.81537734 -685.46191575 195.72536785 -656 167 C-655.3915625 166.35804688 -654.783125 165.71609375 -654.15625 165.0546875 C-644.08497335 154.58201939 -632.33342332 146.55143142 -620 139 C-618.948125 138.34386719 -617.89625 137.68773437 -616.8125 137.01171875 C-590.1430787 121.01647689 -560.20384956 113.19639362 -530 107 C-530 106.67 -530 106.34 -530 106 C-529.26136719 106.01160156 -528.52273438 106.02320313 -527.76171875 106.03515625 C-526.23998047 106.04869141 -526.23998047 106.04869141 -524.6875 106.0625 C-523.70136719 106.07410156 -522.71523438 106.08570313 -521.69921875 106.09765625 C-518.82056432 106.0216622 -516.08212854 105.81273863 -513.2265625 105.5078125 C-505.06187276 104.7287364 -496.8818017 104.80348966 -488.6875 104.8125 C-487.84573212 104.81243958 -487.00396423 104.81237915 -486.13668823 104.81231689 C-468.91539401 104.82991324 -452.13853939 106.20945953 -435.09765625 108.625 C-431.34666355 109.07909243 -427.77079847 109.15391014 -424 109 C-424 109.66 -424 110.32 -424 111 C-418.8452575 109.56239077 -414.96801295 107.22295634 -410.5625 104.3125 C-383.16354796 86.81621278 -352.00650284 81.08015974 -320.07373047 87.53369141 C-313.34565811 89.04659678 -306.97343046 91.02656954 -302 96 C-300.39523666 99.20952667 -300.59559277 102.51309313 -301 106 C-302.43359375 109.31640625 -302.43359375 109.31640625 -304.4375 112.5625 C-304.79223389 113.15256836 -305.14696777 113.74263672 -305.51245117 114.35058594 C-306.65629312 116.24593878 -307.82426417 118.12428453 -309 120 C-318.28377826 133.40515921 -318.28377826 133.40515921 -320.43359375 148.875 C-319.12056982 153.61570745 -316.42648246 156.2975576 -312.875 159.5625 C-312.33101562 160.08779297 -311.78703125 160.61308594 -311.2265625 161.15429688 C-308.33759157 163.91839406 -305.35889337 166.55469508 -302.3203125 169.15234375 C-296.02776072 174.62258202 -290.27207136 180.67254994 -284.41796875 186.60253906 C-279.00227263 192.08206783 -273.59124327 197.49305526 -267.72509766 202.49755859 C-265.0728395 204.80749303 -262.64621778 207.29750256 -260.1875 209.8125 C-257.51348745 212.54685698 -255.18366986 214.87755343 -252 217 C-252 217.66 -252 218.32 -252 219 C-251.17628906 219.3403125 -251.17628906 219.3403125 -250.3359375 219.6875 C-247.30323289 221.39149456 -245.12899444 223.58518893 -242.625 226 C-230.16957621 237.67140797 -214.73406671 250 -197 250 C-197 250.66 -197 251.32 -197 252 C-184.21043002 250.75353343 -184.21043002 250.75353343 -172 247 C-171.67 246.34 -171.34 245.68 -171 245 C-170.175 244.62875 -169.35 244.2575 -168.5 243.875 C-158.32739082 238.42538794 -151.83135311 229.88985561 -148.125 219.0625 C-145.25815076 208.15823415 -147.08932678 198.10170826 -152.3125 188.25 C-160.19798302 175.79407533 -173.19556294 165.36092045 -185.1875 157.0625 C-186.115625 156.381875 -187.04375 155.70125 -188 155 C-188 154.34 -188 153.68 -188 153 C-188.52980469 152.77699219 -189.05960938 152.55398438 -189.60546875 152.32421875 C-212.04246128 139.91615926 -234.36155274 112.42154412 -241.9296875 88 C-242.5 85.5 -242.5 85.5 -243 82 C-243.99 82 -244.98 82 -246 82 C-245.72542969 81.16662109 -245.72542969 81.16662109 -245.4453125 80.31640625 C-244.91500973 77.5579015 -245.28564619 75.67839888 -245.875 72.9375 C-249.71027668 53.29466404 -250.80560889 26.21540157 -241 8 C-238.6300377 4.96158679 -237.05838335 3.46134659 -233.5625 1.9375 C-229.79363566 2.02942352 -227.58120444 3.39899092 -225 6 C-222.75336594 9.19548496 -220.90669501 12.59421698 -219 16 C-217.62588716 18.32594064 -216.22179912 20.63275589 -214.8125 22.9375 C-213.83216797 24.55978516 -213.83216797 24.55978516 -212.83203125 26.21484375 C-211.33550806 28.48994191 -209.91029044 30.11336641 -208 32 C-208 32.66 -208 33.32 -208 34 C-207.34 34 -206.68 34 -206 34 C-206 34.66 -206 35.32 -206 36 C-205.484375 36.2475 -204.96875 36.495 -204.4375 36.75 C-202.37973165 37.80526582 -200.37972777 38.91156026 -198.375 40.0625 C-196.60426608 41.07903244 -194.82621725 42.08689137 -193 43 C-192.01 43.66 -191.02 44.32 -190 45 C-188.29376487 45.65660999 -186.56950217 46.26702854 -184.8359375 46.84765625 C-157.58038893 56.17763668 -135.88735996 67.72191176 -119.19921875 91.828125 C-117.51201766 94.26153048 -115.79834177 96.64876999 -114 99 C-113.21689453 97.80117188 -113.21689453 97.80117188 -112.41796875 96.578125 C-103.93037613 83.81441544 -94.70484749 73.74646644 -82 65 C-81.12472656 64.38898438 -80.24945312 63.77796875 -79.34765625 63.1484375 C-73.55065485 59.18355162 -73.55065485 59.18355162 -70 58 C-66.7481432 56.63495612 -63.53306876 55.18704801 -60.3125 53.75 C-59.43916016 53.36714844 -58.56582031 52.98429687 -57.66601562 52.58984375 C-49.44865569 48.96094712 -49.44865569 48.96094712 -42 44 C-42 43.34 -42 42.68 -42 42 C-41.154375 41.814375 -40.30875 41.62875 -39.4375 41.4375 C-26.86107151 36.17826627 -20.71920925 20.89331936 -15.6394043 9.22412109 C-12.61658743 2.50498789 -12.61658743 2.50498789 -9.41015625 -0.12109375 C-5.76017068 -1.45212576 -3.70220418 -1.16911711 0 0 Z M-399.00390625 238.4375 C-400.18261114 239.95686408 -400.18261114 239.95686408 -399.91796875 241.88671875 C-398.74654923 244.58347602 -397.18615182 246.54627352 -395.3125 248.8125 C-394.58804687 249.69292969 -393.86359375 250.57335937 -393.1171875 251.48046875 C-392.41851562 252.31191406 -391.71984375 253.14335937 -391 254 C-390.46632813 254.63550781 -389.93265625 255.27101563 -389.3828125 255.92578125 C-387.93448362 257.62854629 -386.47009247 259.31600518 -385 261 C-384.49210937 261.58910156 -383.98421875 262.17820312 -383.4609375 262.78515625 C-379.34059908 267.54014396 -375.10441812 272.18122038 -370.81958008 276.7878418 C-368.85548625 278.9119547 -366.99153944 281.01172059 -365.296875 283.359375 C-364.86890625 283.90078125 -364.4409375 284.4421875 -364 285 C-363.34 285 -362.68 285 -362 285 C-361.7525 285.5775 -361.505 286.155 -361.25 286.75 C-359.81700012 289.32939979 -358.21575324 291.06121592 -356 293 C-355.34 293 -354.68 293 -354 293 C-354 293.66 -354 294.32 -354 295 C-352.55316948 296.50273886 -352.55316948 296.50273886 -350.625 298.0625 C-348.27611959 300.04590776 -345.96751141 302.03075213 -343.734375 304.14453125 C-335.18035252 312.2311982 -324.9555147 319.51819853 -314 324 C-313.29359375 324.29648437 -312.5871875 324.59296875 -311.859375 324.8984375 C-302.14538871 328.40447891 -290.0067677 328.50312829 -280.25 325.05859375 C-276.19010451 323.14846931 -272.60670842 320.64786978 -269 318 C-268.01 317.34 -267.02 316.68 -266 316 C-266 315.34 -266 314.68 -266 314 C-265.34 314 -264.68 314 -264 314 C-256.18202689 304.59229977 -253.68426645 295.02876291 -254.70703125 282.96582031 C-256.49451944 270.97177456 -266.51893932 261.51183208 -275.625 254.4375 C-277.73167716 252.93235204 -279.85760574 251.45385895 -282 250 C-282.82298584 249.43732422 -282.82298584 249.43732422 -283.66259766 248.86328125 C-295.93704322 240.60278731 -310.24737408 233.88023664 -325 232 C-326.67021444 231.34227214 -328.33697014 230.67568772 -330 230 C-351.02578685 225.75818497 -380.73179882 225.33002332 -399.00390625 238.4375 Z " fill="#476FFB" transform="translate(857,222)"/>
<path d="M0 0 C7.28931292 1.53575242 14.36341563 3.51001615 21.48046875 5.70117188 C35.44907261 9.83258194 49.06468888 11.5057393 63.58398438 11.39111328 C65.99927181 11.37500486 68.41288698 11.39108858 70.828125 11.41015625 C84.29998992 11.42912782 97.51708478 10.02850937 110.25 5.375 C114.16753907 3.96365951 117.88976648 2.69534026 122 2 C105.54492863 16.36078956 73.34392545 15.15821155 53.10449219 13.80664062 C41.63767571 12.89117319 31.28269809 10.82633446 20.25 7.625 C19.19039062 7.32078125 18.13078125 7.0165625 17.0390625 6.703125 C11.25350566 5.02344721 5.60613121 3.2072449 0 1 C0 0.67 0 0.34 0 0 Z " fill="#2B3F9C" transform="translate(667,740)"/>
<path d="M0 0 C0.84000549 -0.0007251 1.68001099 -0.0014502 2.54547119 -0.00219727 C14.98332326 -0.00100951 27.23288983 0.41254327 39.5625 2.1875 C39.5625 2.5175 39.5625 2.8475 39.5625 3.1875 C37.81259878 3.21542396 36.06255353 3.23429439 34.3125 3.25 C32.85070312 3.26740234 32.85070312 3.26740234 31.359375 3.28515625 C28.19628011 3.20380093 25.1204145 2.98444801 21.97265625 2.6953125 C15.39172687 2.1223257 8.85350757 1.99581733 2.25 2 C0.43326782 2.00012085 0.43326782 2.00012085 -1.42016602 2.00024414 C-12.02172059 2.06619579 -22.47707836 2.84807832 -33.015625 3.94384766 C-36.46536738 4.29090843 -39.91739756 4.55541534 -43.375 4.8125 C-44.87353516 4.92464844 -44.87353516 4.92464844 -46.40234375 5.0390625 C-47.07394531 5.08804687 -47.74554688 5.13703125 -48.4375 5.1875 C-47.839375 4.89875 -47.24125 4.61 -46.625 4.3125 C-44.24422208 3.14007974 -44.24422208 3.14007974 -41.4375 1.1875 C-38.90625 1.02734375 -38.90625 1.02734375 -35.9375 1.125 C-32.12681498 1.24280343 -28.46757845 1.10895418 -24.68359375 0.703125 C-16.47107414 -0.08913996 -8.24288738 -0.00723184 0 0 Z " fill="#2942A3" transform="translate(368.4375,326.8125)"/>
<path d="M0 0 C11.55 0 23.1 0 35 0 C35 0.66 35 1.32 35 2 C35.55719727 1.83701416 36.11439453 1.67402832 36.68847656 1.50610352 C39.19510339 0.9572825 41.41980924 0.88670615 43.984375 0.90234375 C44.91894531 0.90556641 45.85351562 0.90878906 46.81640625 0.91210938 C48.26853516 0.92467773 48.26853516 0.92467773 49.75 0.9375 C50.73355469 0.94201172 51.71710938 0.94652344 52.73046875 0.95117188 C55.15370791 0.96293517 57.57682273 0.97937316 60 1 C60 1.33 60 1.66 60 2 C52.84278342 3.114721 45.79667755 3.15266138 38.5625 3.125 C37.32218018 3.12234131 36.08186035 3.11968262 34.80395508 3.11694336 C23.13155222 3.05689779 11.55739136 2.76098537 0 1 C0 0.67 0 0.34 0 0 Z " fill="#2A41A7" transform="translate(436,739)"/>
<path d="M0 0 C0.66 0.33 1.32 0.66 2 1 C-0.98096673 5.80590002 -4.37085685 9.70642219 -8.375 13.6875 C-8.92671875 14.25533203 -9.4784375 14.82316406 -10.046875 15.40820312 C-13.43031941 18.79561872 -16.53250753 21.09018071 -21 23 C-17.7204202 15.81994907 -11.72817364 10.57262016 -5.80078125 5.54296875 C-3.7600079 3.79436686 -1.86078709 1.93831989 0 0 Z " fill="#3E5ED1" transform="translate(210,380)"/>
<path d="M0 0 C0.33 0 0.66 0 1 0 C1 16.83 1 33.66 1 51 C0.67 51 0.34 51 0 51 C-0.495 53.475 -0.495 53.475 -1 56 C-1.33 56 -1.66 56 -2 56 C-1.4454732 37.32795942 -0.835814 18.66203348 0 0 Z " fill="#5680FB" transform="translate(772,456)"/>
<path d="M0 0 C3.95773697 4.11755058 6.60532137 8.42128549 8 14 C5.62832286 11.82653219 4.20343689 9.69849757 2.6875 6.875 C0.85520267 3.88719984 0.37061128 3.1467003 -3 1.8125 C-6.48351551 2.03021972 -8.16553681 3.03162278 -11 5 C-11.66 5 -12.32 5 -13 5 C-13 6.65 -13 8.3 -13 10 C-13.66 10 -14.32 10 -15 10 C-15.33 10.66 -15.66 11.32 -16 12 C-15.52431821 7.00534117 -14.1835207 3.89096975 -11 0 C-6.87553975 -2.60492226 -4.25372306 -2.25707754 0 0 Z " fill="#3751B7" transform="translate(630,226)"/>
<path d="M0 0 C4.46165577 -0.05016131 8.92315374 -0.08607179 13.38500977 -0.10986328 C14.89675767 -0.11980161 16.40848699 -0.13335698 17.92016602 -0.15087891 C27.51476826 -0.25914856 36.54596334 0.1680545 46 2 C46 2.33 46 2.66 46 3 C45.05382812 2.9278125 44.10765625 2.855625 43.1328125 2.78125 C28.02855785 1.69436253 13.09060664 1.64136017 -2 3 C-1.34 2.67 -0.68 2.34 0 2 C0 1.34 0 0.68 0 0 Z " fill="#233796" transform="translate(482,449)"/>
<path d="M0 0 C0.66 0.33 1.32 0.66 2 1 C-0.4361796 2.23184489 -2.87358881 3.46108077 -5.3125 4.6875 C-6.03783936 5.05254639 -6.76317871 5.41759277 -7.51049805 5.79370117 C-12.56291624 8.32130673 -17.6611596 10.68781196 -22.86328125 12.89453125 C-25.07021656 13.87894159 -25.07021656 13.87894159 -26.54296875 15.69921875 C-27.02378906 16.12847656 -27.50460937 16.55773437 -28 17 C-30.1875 16.6875 -30.1875 16.6875 -32 16 C-30.89932004 15.18278283 -29.79430269 14.37140549 -28.6875 13.5625 C-27.76517578 12.88380859 -27.76517578 12.88380859 -26.82421875 12.19140625 C-25 11 -25 11 -22 10 C-20.46121914 9.33719445 -18.92938366 8.65817501 -17.40234375 7.96875 C-16.07686523 7.37126953 -16.07686523 7.37126953 -14.72460938 6.76171875 C-13.34499023 6.13716797 -13.34499023 6.13716797 -11.9375 5.5 C-10.55208008 4.87544922 -10.55208008 4.87544922 -9.13867188 4.23828125 C-4.5408936 2.17929024 -4.5408936 2.17929024 0 0 Z " fill="#2B42A6" transform="translate(809,270)"/>
<path d="M0 0 C5.29012124 4.40843437 10.18808428 9.07559794 15 14 C13.359375 14.82421875 13.359375 14.82421875 11 15 C8.84518012 13.32971364 7.11197322 11.764884 5.25 9.8125 C4.74339844 9.31685547 4.23679688 8.82121094 3.71484375 8.31054688 C0.72126711 5.25645318 0 4.44315505 0 0 Z " fill="#4060D1" transform="translate(224,665)"/>
<path d="M0 0 C8.82867638 2.66913472 12.66809058 6.67054527 18 14 C15 14 15 14 12 12 C12 11.34 12 10.68 12 10 C11.42765625 9.74347656 10.8553125 9.48695313 10.265625 9.22265625 C7.77351217 7.87777467 5.86644919 6.31486882 3.75 4.4375 C3.04359375 3.81746094 2.3371875 3.19742187 1.609375 2.55859375 C1.07828125 2.04425781 0.5471875 1.52992188 0 1 C0 0.67 0 0.34 0 0 Z " fill="#3B5ACC" transform="translate(657,365)"/>
<path d="M0 0 C5.8881097 1.32615083 8.57962908 4.23923805 12.375 8.625 C12.92027344 9.23601563 13.46554687 9.84703125 14.02734375 10.4765625 C15.36200998 11.97513511 16.68247323 13.48633655 18 15 C14.25983417 15 13.54723807 14.0658409 10.8125 11.625 C10.09707031 10.99851562 9.38164063 10.37203125 8.64453125 9.7265625 C7 8 7 8 7 6 C6.401875 5.7525 5.80375 5.505 5.1875 5.25 C2.71352479 3.83629988 1.56629745 2.34944617 0 0 Z " fill="#3550BA" transform="translate(571,673)"/>
<path d="M0 0 C6.18690402 1.15349058 8.63973912 2.32829191 13 7 C16.26599266 9.43308882 19.62279821 11.72448734 23 14 C19.65219266 14 18.82361974 13.4794133 16.09375 11.69921875 C15.34996094 11.21646484 14.60617187 10.73371094 13.83984375 10.23632812 C13.06769531 9.72521484 12.29554688 9.21410156 11.5 8.6875 C10.72785156 8.18798828 9.95570313 7.68847656 9.16015625 7.17382812 C5.80769025 4.98049032 2.76024502 2.92605289 0 0 Z " fill="#263B9B" transform="translate(368,495)"/>
<path d="M0 0 C0.33 0.66 0.66 1.32 1 2 C0.08292428 3.63035683 -0.84407865 5.2559251 -1.8203125 6.8515625 C-3.59052731 10.07546365 -4.75366298 13.49753174 -5.97265625 16.9609375 C-7 19 -7 19 -10 20 C-8.71417598 14.68751655 -6.84304171 10.62992815 -3.875 6.0625 C-3.50246094 5.47404297 -3.12992188 4.88558594 -2.74609375 4.27929688 C-1.83841694 2.84796036 -0.92029928 1.42325354 0 0 Z " fill="#3653BA" transform="translate(176,419)"/>
<path d="M0 0 C2.875 0.75 2.875 0.75 6 2 C7.125 4 7.125 4 8 6 C9.32467746 6.6837045 10.65863633 7.34964186 12 8 C13.75 10.125 13.75 10.125 15 12 C12.0762431 10.62642293 9.52866443 9.05214734 6.9375 7.125 C6.26589844 6.63257813 5.59429687 6.14015625 4.90234375 5.6328125 C2.91468042 3.92676882 1.4907065 2.14550281 0 0 Z " fill="#3958C8" transform="translate(500,516)"/>
<path d="M0 0 C7.26 0.99 14.52 1.98 22 3 C22 3.33 22 3.66 22 4 C13.94641862 4.14525497 6.02124152 3.71413279 -2 3 C-1.34 2.01 -0.68 1.02 0 0 Z " fill="#2C419F" transform="translate(701,749)"/>
<path d="M0 0 C3.88056075 1.46248114 5.04133478 3.31854481 6.8125 7 C7.25207031 7.886875 7.69164062 8.77375 8.14453125 9.6875 C8.56798828 10.8321875 8.56798828 10.8321875 9 12 C8.67 12.66 8.34 13.32 8 14 C6.66101601 12.04532248 5.32870953 10.0866421 4 8.125 C3.2575 7.03445313 2.515 5.94390625 1.75 4.8203125 C0 2 0 2 0 0 Z " fill="#3854C4" transform="translate(623,325)"/>
<path d="M0 0 C6.27 0 12.54 0 19 0 C19 0.33 19 0.66 19 1 C16.62561751 1.3383344 14.25065041 1.67079002 11.875 2 C11.20984375 2.09539062 10.5446875 2.19078125 9.859375 2.2890625 C5.87371019 2.83611453 2.02140062 3.10022182 -2 3 C-1.34 2.67 -0.68 2.34 0 2 C0 1.34 0 0.68 0 0 Z " fill="#2B41A8" transform="translate(482,449)"/>
<path d="M0 0 C2 1.375 2 1.375 4 3 C4 3.66 4 4.32 4 5 C4.66 5 5.32 5 6 5 C6.66 6.32 7.32 7.64 8 9 C4.74488211 8.43877278 3.00159929 7.66879905 1 5 C0.3125 2.3125 0.3125 2.3125 0 0 Z " fill="#3C59CA" transform="translate(258,648)"/>
<path d="M0 0 C2.75 0.125 2.75 0.125 6 1 C8.375 4.0625 8.375 4.0625 10 7 C5.56541027 5.6062718 3.12621626 3.39417765 0 0 Z " fill="#3754C3" transform="translate(391,510)"/>
<path d="M0 0 C4.10958767 1.45044271 7.43258745 3.51110752 11 6 C10.01 6.495 10.01 6.495 9 7 C2.52856205 4.80433355 2.52856205 4.80433355 0.5625 1.8125 C0.376875 1.214375 0.19125 0.61625 0 0 Z " fill="#3754C3" transform="translate(702,282)"/>
<path d="M0 0 C7.71428571 4 7.71428571 4 9 8 C6 8 6 8 4.39453125 6.7578125 C3.87246094 6.21898437 3.35039062 5.68015625 2.8125 5.125 C2.28269531 4.59132813 1.75289063 4.05765625 1.20703125 3.5078125 C0 2 0 2 0 0 Z " fill="#466AE2" transform="translate(488,503)"/>
<path d="M0 0 C0.66 0 1.32 0 2 0 C2 0.99 2 1.98 2 3 C-0.25 5.25 -0.25 5.25 -3 7 C-5.171875 6.609375 -5.171875 6.609375 -7 6 C-6.4946875 5.65066406 -5.989375 5.30132812 -5.46875 4.94140625 C-4.8190625 4.48636719 -4.169375 4.03132813 -3.5 3.5625 C-2.8503125 3.11003906 -2.200625 2.65757812 -1.53125 2.19140625 C-0.77328125 1.60166016 -0.77328125 1.60166016 0 1 C0 0.67 0 0.34 0 0 Z " fill="#3753C0" transform="translate(784,280)"/>
<path d="M0 0 C0.66 0 1.32 0 2 0 C2.33 1.98 2.66 3.96 3 6 C2.67 6 2.34 6 2 6 C1.67 7.65 1.34 9.3 1 11 C0.67 11 0.34 11 0 11 C0 7.37 0 3.74 0 0 Z " fill="#4E74EC" transform="translate(770,501)"/>
<path d="M0 0 C1.31571603 0.2547514 2.62760376 0.52934141 3.9375 0.8125 C4.66839844 0.96332031 5.39929688 1.11414063 6.15234375 1.26953125 C6.76207031 1.51058594 7.37179687 1.75164062 8 2 C8.33 2.99 8.66 3.98 9 5 C5.51694958 4.35499066 2.93797836 2.95865224 0 1 C0 0.67 0 0.34 0 0 Z " fill="#3754C3" transform="translate(368,495)"/>
<path d="M0 0 C0.33 0.66 0.66 1.32 1 2 C-0.4375 4.625 -0.4375 4.625 -2 7 C-2.99 6.67 -3.98 6.34 -5 6 C-5.6875 3.9375 -5.6875 3.9375 -6 2 C-4.515 2.99 -4.515 2.99 -3 4 C-2.01 2.68 -1.02 1.36 0 0 Z " fill="#324CB6" transform="translate(746,317)"/>
<path d="M0 0 C-0.25 1.875 -0.25 1.875 -1 4 C-3.0625 5.25 -3.0625 5.25 -5 6 C-5 3 -5 3 -3.625 1.3125 C-2 0 -2 0 0 0 Z " fill="#3F5FCF" transform="translate(811,724)"/>
<path d="M0 0 C5.66153846 1.47692308 5.66153846 1.47692308 7.375 4.125 C7.684375 5.053125 7.684375 5.053125 8 6 C4.08597051 4.73058503 2.20927127 3.48832306 0 0 Z " fill="#3650BA" transform="translate(616,711)"/>
<path d="M0 0 C0.33 0.66 0.66 1.32 1 2 C-0.65 2 -2.3 2 -4 2 C-2.68 1.34 -1.36 0.68 0 0 Z " fill="#4D69E2" transform="translate(510,304)"/>
<path d="M0 0 C1.65 0 3.3 0 5 0 C5 0.33 5 0.66 5 1 C3.35 1 1.7 1 0 1 C0 0.67 0 0.34 0 0 Z " fill="#5071EA" transform="translate(432,736)"/>
<path d="M0 0 C0.33 0.66 0.66 1.32 1 2 C1.66 2.33 2.32 2.66 3 3 C2.01 3 1.02 3 0 3 C0 2.01 0 1.02 0 0 Z " fill="#5470EC" transform="translate(608,707)"/>
<path d="M0 0 C1.65 0 3.3 0 5 0 C5 0.33 5 0.66 5 1 C3.35 1 1.7 1 0 1 C0 0.67 0 0.34 0 0 Z " fill="#5378F4" transform="translate(662,472)"/>
<path d="M0 0 C0.99 0.495 0.99 0.495 2 1 C1.67 1.66 1.34 2.32 1 3 C0.67 2.01 0.34 1.02 0 0 Z " fill="#4962C8" transform="translate(820,708)"/>
<path d="M0 0 C0.66 0.66 1.32 1.32 2 2 C1.01 2.495 1.01 2.495 0 3 C0 2.01 0 1.02 0 0 Z " fill="#506EE5" transform="translate(201,643)"/>
<path d="M0 0 C0.99 1.485 0.99 1.485 2 3 C1.34 3 0.68 3 0 3 C0 2.01 0 1.02 0 0 Z " fill="#4C68D4" transform="translate(869,240)"/>
<path d="M0 0 C0.99 0.495 0.99 0.495 2 1 C1.01 1.495 1.01 1.495 0 2 C0 1.34 0 0.68 0 0 Z " fill="#506BE4" transform="translate(401,765)"/>
<path d="M0 0 C3 1 3 1 3 1 Z " fill="#4D6BE4" transform="translate(695,751)"/>
<path d="M0 0 C3 1 3 1 3 1 Z " fill="#4E6DEC" transform="translate(460,738)"/>
<path d="M0 0 C0.33 0.66 0.66 1.32 1 2 C0.34 1.67 -0.32 1.34 -1 1 C-0.67 0.67 -0.34 0.34 0 0 Z " fill="#506FEB" transform="translate(485,737)"/>
<path d="M0 0 C0.66 0 1.32 0 2 0 C1.67 0.66 1.34 1.32 1 2 C0.67 1.34 0.34 0.68 0 0 Z " fill="#526FEA" transform="translate(617,715)"/>
<path d="" fill="#516EE4" transform="translate(0,0)"/>
<path d="M0 0 C0.66 0.66 1.32 1.32 2 2 C1.34 2 0.68 2 0 2 C0 1.34 0 0.68 0 0 Z " fill="#5370EF" transform="translate(496,603)"/>
<path d="M0 0 C0.99 0.495 0.99 0.495 2 1 C1.01 1.495 1.01 1.495 0 2 C0 1.34 0 0.68 0 0 Z " fill="#5276F7" transform="translate(574,544)"/>
<path d="" fill="#5274F0" transform="translate(0,0)"/>
<path d="M0 0 C0.33 0.66 0.66 1.32 1 2 C0.34 1.67 -0.32 1.34 -1 1 C-0.67 0.67 -0.34 0.34 0 0 Z " fill="#5576F7" transform="translate(481,453)"/>
<path d="M0 0 C0.99 0.495 0.99 0.495 2 1 C1.01 1.495 1.01 1.495 0 2 C0 1.34 0 0.68 0 0 Z " fill="#4960CA" transform="translate(616,226)"/>
<path d="M0 0 C2 1 2 1 2 1 Z " fill="#4E69E2" transform="translate(406,766)"/>
<path d="M0 0 C2 1 2 1 2 1 Z " fill="#516ADE" transform="translate(734,755)"/>
<path d="M0 0 C2 1 2 1 2 1 Z " fill="#536DDF" transform="translate(718,754)"/>
<path d="M0 0 C2 1 2 1 2 1 Z " fill="#4E6CE3" transform="translate(691,750)"/>
<path d="M0 0 C2 1 2 1 2 1 Z " fill="#4D6CE7" transform="translate(689,749)"/>
<path d="M0 0 C2 1 2 1 2 1 Z " fill="#506BE5" transform="translate(685,748)"/>
<path d="" fill="#4F69E3" transform="translate(0,0)"/>
<path d="M0 0 C2 1 2 1 2 1 Z " fill="#5173E8" transform="translate(366,720)"/>
<path d="" fill="#506DE7" transform="translate(0,0)"/>
<path d="M0 0 C2 1 2 1 2 1 Z " fill="#4E71EB" transform="translate(779,688)"/>
<path d="" fill="#536FED" transform="translate(0,0)"/>
<path d="" fill="#506EE4" transform="translate(0,0)"/>
<path d="M0 0 C2 1 2 1 2 1 Z " fill="#536FEF" transform="translate(748,599)"/>
<path d="" fill="#4E6EE5" transform="translate(0,0)"/>
<path d="M0 0 C2 1 2 1 2 1 Z " fill="#5170EB" transform="translate(432,545)"/>
<path d="" fill="#5273F5" transform="translate(0,0)"/>
<path d="" fill="#5271EC" transform="translate(0,0)"/>
<path d="" fill="#5574EF" transform="translate(0,0)"/>
<path d="" fill="#5476EB" transform="translate(0,0)"/>
<path d="M0 0 C2 1 2 1 2 1 Z " fill="#5071EF" transform="translate(332,479)"/>
<path d="M0 0 C2 1 2 1 2 1 Z " fill="#5172EF" transform="translate(307,470)"/>
<path d="M0 0 C2 1 2 1 2 1 Z " fill="#5272F2" transform="translate(234,470)"/>
<path d="M0 0 C2 1 2 1 2 1 Z " fill="#547BF8" transform="translate(460,460)"/>
<path d="M0 0 C2 1 2 1 2 1 Z " fill="#5373F4" transform="translate(528,454)"/>
<path d="M0 0 C2 1 2 1 2 1 Z " fill="#5575F5" transform="translate(502,451)"/>
<path d="" fill="#5373ED" transform="translate(0,0)"/>
<path d="" fill="#5273ED" transform="translate(0,0)"/>
<path d="" fill="#5276F5" transform="translate(0,0)"/>
<path d="" fill="#5572F3" transform="translate(0,0)"/>
<path d="M0 0 C2 1 2 1 2 1 Z " fill="#4F71E8" transform="translate(249,352)"/>
<path d="M0 0 C2 1 2 1 2 1 Z " fill="#5171E9" transform="translate(267,344)"/>
<path d="M0 0 C2 1 2 1 2 1 Z " fill="#526FE9" transform="translate(281,339)"/>
<path d="M0 0 C2 1 2 1 2 1 Z " fill="#5171E9" transform="translate(440,328)"/>
<path d="M0 0 C2 1 2 1 2 1 Z " fill="#5370F0" transform="translate(428,328)"/>
<path d="M0 0 C2 1 2 1 2 1 Z " fill="#4F71E6" transform="translate(471,312)"/>
<path d="M0 0 C2 1 2 1 2 1 Z " fill="#4F69E6" transform="translate(495,306)"/>
<path d="" fill="#5372EC" transform="translate(0,0)"/>
<path d="" fill="#5372F0" transform="translate(0,0)"/>
<path d="" fill="#5575EB" transform="translate(0,0)"/>
<path d="M0 0 C2 1 2 1 2 1 Z " fill="#5073EA" transform="translate(801,272)"/>
<path d="M0 0 C2 1 2 1 2 1 Z " fill="#5071EC" transform="translate(684,272)"/>
<path d="M0 0 C2 1 2 1 2 1 Z " fill="#506FEA" transform="translate(670,267)"/>
<path d="" fill="#455CC1" transform="translate(0,0)"/>
<path d="" fill="#030505" transform="translate(0,0)"/>
<path d="" fill="#06080C" transform="translate(0,0)"/>
<path d="" fill="#526BDE" transform="translate(0,0)"/>
<path d="" fill="#526FE2" transform="translate(0,0)"/>
<path d="" fill="#4F6DE5" transform="translate(0,0)"/>
<path d="" fill="#4F6AE1" transform="translate(0,0)"/>
<path d="" fill="#4E6BE2" transform="translate(0,0)"/>
<path d="" fill="#516EE5" transform="translate(0,0)"/>
<path d="" fill="#526FE8" transform="translate(0,0)"/>
<path d="" fill="#4F6AE2" transform="translate(0,0)"/>
<path d="" fill="#5170E6" transform="translate(0,0)"/>
<path d="" fill="#4E6BE3" transform="translate(0,0)"/>
<path d="" fill="#506BE1" transform="translate(0,0)"/>
<path d="" fill="#536EE8" transform="translate(0,0)"/>
<path d="" fill="#4D6FE7" transform="translate(0,0)"/>
<path d="" fill="#506DE4" transform="translate(0,0)"/>
<path d="" fill="#4C67DC" transform="translate(0,0)"/>
<path d="" fill="#506EE5" transform="translate(0,0)"/>
<path d="" fill="#4E6BE3" transform="translate(0,0)"/>
<path d="" fill="#516ADE" transform="translate(0,0)"/>
<path d="" fill="#506BDD" transform="translate(0,0)"/>
<path d="" fill="#526EDF" transform="translate(0,0)"/>
<path d="" fill="#526FE1" transform="translate(0,0)"/>
<path d="" fill="#4D6ADF" transform="translate(0,0)"/>
<path d="" fill="#4E6AE3" transform="translate(0,0)"/>
<path d="" fill="#4E67DB" transform="translate(0,0)"/>
<path d="" fill="#4C6BE3" transform="translate(0,0)"/>
<path d="" fill="#4C66DB" transform="translate(0,0)"/>
<path d="" fill="#506EE6" transform="translate(0,0)"/>
<path d="" fill="#4D6EEA" transform="translate(0,0)"/>
<path d="" fill="#4D6DE8" transform="translate(0,0)"/>
<path d="" fill="#4E6CE1" transform="translate(0,0)"/>
<path d="" fill="#5069E2" transform="translate(0,0)"/>
<path d="" fill="#526EE0" transform="translate(0,0)"/>
<path d="" fill="#4D6EE1" transform="translate(0,0)"/>
<path d="" fill="#4E6DE6" transform="translate(0,0)"/>
<path d="" fill="#506CE6" transform="translate(0,0)"/>
<path d="" fill="#506AE1" transform="translate(0,0)"/>
<path d="" fill="#4C66DE" transform="translate(0,0)"/>
<path d="" fill="#4E6CE4" transform="translate(0,0)"/>
<path d="" fill="#4F69DC" transform="translate(0,0)"/>
<path d="" fill="#4F6AE3" transform="translate(0,0)"/>
<path d="" fill="#4E6AE1" transform="translate(0,0)"/>
<path d="" fill="#4F6CE1" transform="translate(0,0)"/>
<path d="" fill="#4E67DC" transform="translate(0,0)"/>
<path d="" fill="#4F6BE2" transform="translate(0,0)"/>
<path d="" fill="#506BE0" transform="translate(0,0)"/>
<path d="" fill="#516DE7" transform="translate(0,0)"/>
<path d="" fill="#5273ED" transform="translate(0,0)"/>
<path d="" fill="#516EE8" transform="translate(0,0)"/>
<path d="" fill="#516FEC" transform="translate(0,0)"/>
<path d="" fill="#5069DE" transform="translate(0,0)"/>
<path d="" fill="#516CE4" transform="translate(0,0)"/>
<path d="" fill="#5875F0" transform="translate(0,0)"/>
<path d="" fill="#5270EA" transform="translate(0,0)"/>
<path d="" fill="#5270EA" transform="translate(0,0)"/>
<path d="" fill="#4D6DED" transform="translate(0,0)"/>
<path d="" fill="#506DE6" transform="translate(0,0)"/>
<path d="" fill="#546EE9" transform="translate(0,0)"/>
<path d="" fill="#516FEC" transform="translate(0,0)"/>
<path d="" fill="#516BE5" transform="translate(0,0)"/>
<path d="" fill="#5170F0" transform="translate(0,0)"/>
<path d="" fill="#506CE6" transform="translate(0,0)"/>
<path d="" fill="#4F6FEB" transform="translate(0,0)"/>
<path d="" fill="#5173EA" transform="translate(0,0)"/>
<path d="" fill="#5170E6" transform="translate(0,0)"/>
<path d="" fill="#4F6EE9" transform="translate(0,0)"/>
<path d="" fill="#516EEC" transform="translate(0,0)"/>
<path d="" fill="#4C69E3" transform="translate(0,0)"/>
<path d="" fill="#4D66D9" transform="translate(0,0)"/>
<path d="" fill="#4E6DE9" transform="translate(0,0)"/>
<path d="" fill="#526EEE" transform="translate(0,0)"/>
<path d="" fill="#5470EA" transform="translate(0,0)"/>
<path d="" fill="#4F69E0" transform="translate(0,0)"/>
<path d="" fill="#4F69DE" transform="translate(0,0)"/>
<path d="" fill="#516AE4" transform="translate(0,0)"/>
<path d="" fill="#526FEC" transform="translate(0,0)"/>
<path d="" fill="#516EE7" transform="translate(0,0)"/>
<path d="" fill="#516EEB" transform="translate(0,0)"/>
<path d="" fill="#5471EE" transform="translate(0,0)"/>
<path d="" fill="#4F6FEE" transform="translate(0,0)"/>
<path d="" fill="#4C64CB" transform="translate(0,0)"/>
<path d="" fill="#536FE9" transform="translate(0,0)"/>
<path d="" fill="#4E69DB" transform="translate(0,0)"/>
<path d="" fill="#475EC6" transform="translate(0,0)"/>
<path d="" fill="#4F70F2" transform="translate(0,0)"/>
<path d="" fill="#4E69DF" transform="translate(0,0)"/>
<path d="" fill="#4B67D5" transform="translate(0,0)"/>
<path d="" fill="#4E67D7" transform="translate(0,0)"/>
<path d="" fill="#5474ED" transform="translate(0,0)"/>
<path d="" fill="#4B65D0" transform="translate(0,0)"/>
<path d="" fill="#4F6EE6" transform="translate(0,0)"/>
<path d="" fill="#4E6CDE" transform="translate(0,0)"/>
<path d="" fill="#4F70E5" transform="translate(0,0)"/>
<path d="" fill="#5070E8" transform="translate(0,0)"/>
<path d="" fill="#516DE6" transform="translate(0,0)"/>
<path d="" fill="#506DE7" transform="translate(0,0)"/>
<path d="" fill="#4F6CE6" transform="translate(0,0)"/>
<path d="" fill="#4E6FEB" transform="translate(0,0)"/>
<path d="" fill="#5471ED" transform="translate(0,0)"/>
<path d="" fill="#4F71EA" transform="translate(0,0)"/>
<path d="" fill="#5074F1" transform="translate(0,0)"/>
<path d="" fill="#5471EC" transform="translate(0,0)"/>
<path d="" fill="#516FEC" transform="translate(0,0)"/>
<path d="" fill="#5574EF" transform="translate(0,0)"/>
<path d="" fill="#5373ED" transform="translate(0,0)"/>
<path d="" fill="#5371EB" transform="translate(0,0)"/>
<path d="" fill="#4C70EE" transform="translate(0,0)"/>
<path d="" fill="#5472ED" transform="translate(0,0)"/>
<path d="" fill="#5073EC" transform="translate(0,0)"/>
<path d="" fill="#4D6EE5" transform="translate(0,0)"/>
<path d="" fill="#5270EC" transform="translate(0,0)"/>
<path d="" fill="#5474EC" transform="translate(0,0)"/>
<path d="" fill="#5372EE" transform="translate(0,0)"/>
<path d="" fill="#4F70F2" transform="translate(0,0)"/>
<path d="" fill="#5677F1" transform="translate(0,0)"/>
<path d="" fill="#5174EF" transform="translate(0,0)"/>
<path d="" fill="#5473F0" transform="translate(0,0)"/>
<path d="" fill="#5273EF" transform="translate(0,0)"/>
<path d="" fill="#5371EE" transform="translate(0,0)"/>
<path d="" fill="#516DE1" transform="translate(0,0)"/>
<path d="" fill="#516FEE" transform="translate(0,0)"/>
<path d="" fill="#4E6DEB" transform="translate(0,0)"/>
<path d="" fill="#5477F0" transform="translate(0,0)"/>
<path d="" fill="#506FED" transform="translate(0,0)"/>
<path d="" fill="#5372F2" transform="translate(0,0)"/>
<path d="" fill="#5772F1" transform="translate(0,0)"/>
<path d="" fill="#526EED" transform="translate(0,0)"/>
<path d="" fill="#516FE9" transform="translate(0,0)"/>
<path d="" fill="#5370F1" transform="translate(0,0)"/>
<path d="" fill="#4F6EE4" transform="translate(0,0)"/>
<path d="" fill="#506DE6" transform="translate(0,0)"/>
<path d="" fill="#5270EC" transform="translate(0,0)"/>
<path d="" fill="#5370ED" transform="translate(0,0)"/>
<path d="" fill="#516EE8" transform="translate(0,0)"/>
<path d="" fill="#5270EB" transform="translate(0,0)"/>
<path d="" fill="#5272F0" transform="translate(0,0)"/>
<path d="" fill="#556FEF" transform="translate(0,0)"/>
<path d="" fill="#506BE6" transform="translate(0,0)"/>
<path d="" fill="#5470F0" transform="translate(0,0)"/>
<path d="" fill="#5775F2" transform="translate(0,0)"/>
<path d="" fill="#516EEA" transform="translate(0,0)"/>
<path d="" fill="#506EF0" transform="translate(0,0)"/>
<path d="" fill="#5171F0" transform="translate(0,0)"/>
<path d="" fill="#516FED" transform="translate(0,0)"/>
<path d="" fill="#5370F0" transform="translate(0,0)"/>
<path d="" fill="#5370EE" transform="translate(0,0)"/>
<path d="" fill="#5370EB" transform="translate(0,0)"/>
<path d="" fill="#5272ED" transform="translate(0,0)"/>
<path d="" fill="#506BE2" transform="translate(0,0)"/>
<path d="" fill="#536DE0" transform="translate(0,0)"/>
<path d="" fill="#4F72EE" transform="translate(0,0)"/>
<path d="" fill="#5474F0" transform="translate(0,0)"/>
<path d="" fill="#506FEC" transform="translate(0,0)"/>
<path d="" fill="#5271E6" transform="translate(0,0)"/>
<path d="" fill="#506CE2" transform="translate(0,0)"/>
<path d="" fill="#4F71ED" transform="translate(0,0)"/>
<path d="" fill="#5170F0" transform="translate(0,0)"/>
<path d="" fill="#506CE3" transform="translate(0,0)"/>
<path d="" fill="#5272EE" transform="translate(0,0)"/>
<path d="" fill="#5271EC" transform="translate(0,0)"/>
<path d="" fill="#5372EE" transform="translate(0,0)"/>
<path d="" fill="#526EE9" transform="translate(0,0)"/>
<path d="" fill="#4F71ED" transform="translate(0,0)"/>
<path d="" fill="#4F6CE6" transform="translate(0,0)"/>
<path d="" fill="#516EEC" transform="translate(0,0)"/>
<path d="" fill="#506DE8" transform="translate(0,0)"/>
<path d="" fill="#5274F7" transform="translate(0,0)"/>
<path d="" fill="#5275F8" transform="translate(0,0)"/>
<path d="" fill="#5270EC" transform="translate(0,0)"/>
<path d="" fill="#5476F8" transform="translate(0,0)"/>
<path d="" fill="#5274F7" transform="translate(0,0)"/>
<path d="" fill="#5375F8" transform="translate(0,0)"/>
<path d="" fill="#4E70EB" transform="translate(0,0)"/>
<path d="" fill="#5373E6" transform="translate(0,0)"/>
<path d="" fill="#506EEC" transform="translate(0,0)"/>
<path d="" fill="#506CEB" transform="translate(0,0)"/>
<path d="" fill="#5474E8" transform="translate(0,0)"/>
<path d="" fill="#5578FA" transform="translate(0,0)"/>
<path d="" fill="#5272F2" transform="translate(0,0)"/>
<path d="" fill="#526FEE" transform="translate(0,0)"/>
<path d="" fill="#516FE6" transform="translate(0,0)"/>
<path d="" fill="#5372F4" transform="translate(0,0)"/>
<path d="" fill="#5071F1" transform="translate(0,0)"/>
<path d="" fill="#5374EC" transform="translate(0,0)"/>
<path d="" fill="#5473EE" transform="translate(0,0)"/>
<path d="" fill="#4F6DE5" transform="translate(0,0)"/>
<path d="" fill="#4F72EC" transform="translate(0,0)"/>
<path d="" fill="#5277F4" transform="translate(0,0)"/>
<path d="" fill="#536DF1" transform="translate(0,0)"/>
<path d="" fill="#526FEE" transform="translate(0,0)"/>
<path d="" fill="#5372EC" transform="translate(0,0)"/>
<path d="" fill="#5271F2" transform="translate(0,0)"/>
<path d="" fill="#506EED" transform="translate(0,0)"/>
<path d="" fill="#5274F6" transform="translate(0,0)"/>
<path d="" fill="#5676F8" transform="translate(0,0)"/>
<path d="" fill="#5270EA" transform="translate(0,0)"/>
<path d="" fill="#5573F6" transform="translate(0,0)"/>
<path d="" fill="#5576EE" transform="translate(0,0)"/>
<path d="" fill="#4F6DEA" transform="translate(0,0)"/>
<path d="" fill="#5471EA" transform="translate(0,0)"/>
<path d="" fill="#5170F1" transform="translate(0,0)"/>
<path d="" fill="#5376F9" transform="translate(0,0)"/>
<path d="" fill="#5573F4" transform="translate(0,0)"/>
<path d="" fill="#5577F8" transform="translate(0,0)"/>
<path d="" fill="#5174F0" transform="translate(0,0)"/>
<path d="" fill="#4F70E6" transform="translate(0,0)"/>
<path d="" fill="#5270F0" transform="translate(0,0)"/>
<path d="" fill="#5575F5" transform="translate(0,0)"/>
<path d="" fill="#516EE6" transform="translate(0,0)"/>
<path d="" fill="#5272EF" transform="translate(0,0)"/>
<path d="" fill="#5271F7" transform="translate(0,0)"/>
<path d="" fill="#5174F0" transform="translate(0,0)"/>
<path d="" fill="#5472F3" transform="translate(0,0)"/>
<path d="" fill="#5877F5" transform="translate(0,0)"/>
<path d="" fill="#5071F0" transform="translate(0,0)"/>
<path d="" fill="#5571F2" transform="translate(0,0)"/>
<path d="" fill="#5174F7" transform="translate(0,0)"/>
<path d="" fill="#5878F7" transform="translate(0,0)"/>
<path d="" fill="#5376F8" transform="translate(0,0)"/>
<path d="" fill="#5476F9" transform="translate(0,0)"/>
<path d="" fill="#5374F4" transform="translate(0,0)"/>
<path d="" fill="#5373F6" transform="translate(0,0)"/>
<path d="" fill="#5174F9" transform="translate(0,0)"/>
<path d="" fill="#5573F1" transform="translate(0,0)"/>
<path d="" fill="#5374F7" transform="translate(0,0)"/>
<path d="" fill="#5274F4" transform="translate(0,0)"/>
<path d="" fill="#5577F6" transform="translate(0,0)"/>
<path d="" fill="#5473F8" transform="translate(0,0)"/>
<path d="" fill="#5478F5" transform="translate(0,0)"/>
<path d="" fill="#557AFA" transform="translate(0,0)"/>
<path d="" fill="#5877FA" transform="translate(0,0)"/>
<path d="" fill="#5479F6" transform="translate(0,0)"/>
<path d="" fill="#5171F4" transform="translate(0,0)"/>
<path d="" fill="#5272F6" transform="translate(0,0)"/>
<path d="" fill="#5471F6" transform="translate(0,0)"/>
<path d="" fill="#5674F8" transform="translate(0,0)"/>
<path d="" fill="#5374F7" transform="translate(0,0)"/>
<path d="" fill="#5476F6" transform="translate(0,0)"/>
<path d="" fill="#516DE5" transform="translate(0,0)"/>
<path d="" fill="#5575F0" transform="translate(0,0)"/>
<path d="" fill="#5477FA" transform="translate(0,0)"/>
<path d="" fill="#5373F3" transform="translate(0,0)"/>
<path d="" fill="#5473EE" transform="translate(0,0)"/>
<path d="" fill="#5577EF" transform="translate(0,0)"/>
<path d="" fill="#5175F7" transform="translate(0,0)"/>
<path d="" fill="#536DE1" transform="translate(0,0)"/>
<path d="" fill="#506ADE" transform="translate(0,0)"/>
<path d="" fill="#5874F0" transform="translate(0,0)"/>
<path d="" fill="#4F72F2" transform="translate(0,0)"/>
<path d="" fill="#5572EF" transform="translate(0,0)"/>
<path d="" fill="#5272F4" transform="translate(0,0)"/>
<path d="" fill="#5775F1" transform="translate(0,0)"/>
<path d="" fill="#5575F4" transform="translate(0,0)"/>
<path d="" fill="#5572EB" transform="translate(0,0)"/>
<path d="" fill="#5476F3" transform="translate(0,0)"/>
<path d="" fill="#5371EB" transform="translate(0,0)"/>
<path d="" fill="#5277F4" transform="translate(0,0)"/>
<path d="" fill="#5471E9" transform="translate(0,0)"/>
<path d="" fill="#5172EF" transform="translate(0,0)"/>
<path d="" fill="#5370E6" transform="translate(0,0)"/>
<path d="" fill="#526FEE" transform="translate(0,0)"/>
<path d="" fill="#5073F3" transform="translate(0,0)"/>
<path d="" fill="#526EEB" transform="translate(0,0)"/>
<path d="" fill="#5275F6" transform="translate(0,0)"/>
<path d="" fill="#5371EB" transform="translate(0,0)"/>
<path d="" fill="#506EE7" transform="translate(0,0)"/>
<path d="" fill="#516FE6" transform="translate(0,0)"/>
<path d="" fill="#5272F1" transform="translate(0,0)"/>
<path d="" fill="#526EE5" transform="translate(0,0)"/>
<path d="" fill="#5273F6" transform="translate(0,0)"/>
<path d="" fill="#4E6EE6" transform="translate(0,0)"/>
<path d="" fill="#4E6CE5" transform="translate(0,0)"/>
<path d="" fill="#5677F6" transform="translate(0,0)"/>
<path d="" fill="#4F6EE5" transform="translate(0,0)"/>
<path d="" fill="#5678F6" transform="translate(0,0)"/>
<path d="" fill="#506CE2" transform="translate(0,0)"/>
<path d="" fill="#4E6CE7" transform="translate(0,0)"/>
<path d="" fill="#5170F2" transform="translate(0,0)"/>
<path d="" fill="#5573F3" transform="translate(0,0)"/>
<path d="" fill="#5172E9" transform="translate(0,0)"/>
<path d="" fill="#506FE8" transform="translate(0,0)"/>
<path d="" fill="#5272F3" transform="translate(0,0)"/>
<path d="" fill="#5070E7" transform="translate(0,0)"/>
<path d="" fill="#506EE6" transform="translate(0,0)"/>
<path d="" fill="#5170F1" transform="translate(0,0)"/>
<path d="" fill="#506FE8" transform="translate(0,0)"/>
<path d="" fill="#506CE9" transform="translate(0,0)"/>
<path d="" fill="#5071EA" transform="translate(0,0)"/>
<path d="" fill="#5373F5" transform="translate(0,0)"/>
<path d="" fill="#506CE5" transform="translate(0,0)"/>
<path d="" fill="#5272F0" transform="translate(0,0)"/>
<path d="" fill="#5271EF" transform="translate(0,0)"/>
<path d="" fill="#5674F2" transform="translate(0,0)"/>
<path d="" fill="#5473EA" transform="translate(0,0)"/>
<path d="" fill="#526EEE" transform="translate(0,0)"/>
<path d="" fill="#4E6FEB" transform="translate(0,0)"/>
<path d="" fill="#516DE9" transform="translate(0,0)"/>
<path d="" fill="#506EE6" transform="translate(0,0)"/>
<path d="" fill="#5070E8" transform="translate(0,0)"/>
<path d="" fill="#5271E8" transform="translate(0,0)"/>
<path d="" fill="#5472EF" transform="translate(0,0)"/>
<path d="" fill="#5073F3" transform="translate(0,0)"/>
<path d="" fill="#516EEB" transform="translate(0,0)"/>
<path d="" fill="#4F6FE3" transform="translate(0,0)"/>
<path d="" fill="#506CE4" transform="translate(0,0)"/>
<path d="" fill="#506EE6" transform="translate(0,0)"/>
<path d="" fill="#4E6DE4" transform="translate(0,0)"/>
<path d="" fill="#4C6EE5" transform="translate(0,0)"/>
<path d="" fill="#5272EF" transform="translate(0,0)"/>
<path d="" fill="#516DE5" transform="translate(0,0)"/>
<path d="" fill="#516FEA" transform="translate(0,0)"/>
<path d="" fill="#506CE6" transform="translate(0,0)"/>
<path d="" fill="#5274F3" transform="translate(0,0)"/>
<path d="" fill="#506AE5" transform="translate(0,0)"/>
<path d="" fill="#546FEE" transform="translate(0,0)"/>
<path d="" fill="#5471EC" transform="translate(0,0)"/>
<path d="" fill="#516CE8" transform="translate(0,0)"/>
<path d="" fill="#4E6DE6" transform="translate(0,0)"/>
<path d="" fill="#5574F0" transform="translate(0,0)"/>
<path d="" fill="#5373F0" transform="translate(0,0)"/>
<path d="" fill="#5275F3" transform="translate(0,0)"/>
<path d="" fill="#5370EE" transform="translate(0,0)"/>
<path d="" fill="#5171F2" transform="translate(0,0)"/>
<path d="" fill="#566FE3" transform="translate(0,0)"/>
<path d="" fill="#5575EF" transform="translate(0,0)"/>
<path d="" fill="#5270EB" transform="translate(0,0)"/>
<path d="" fill="#526FED" transform="translate(0,0)"/>
<path d="" fill="#4F72ED" transform="translate(0,0)"/>
<path d="" fill="#516FE9" transform="translate(0,0)"/>
<path d="" fill="#587BF1" transform="translate(0,0)"/>
<path d="" fill="#516FEA" transform="translate(0,0)"/>
<path d="" fill="#4F70EB" transform="translate(0,0)"/>
<path d="" fill="#506CEB" transform="translate(0,0)"/>
<path d="" fill="#506EEC" transform="translate(0,0)"/>
<path d="" fill="#536FEA" transform="translate(0,0)"/>
<path d="" fill="#506DEC" transform="translate(0,0)"/>
<path d="" fill="#4E6EE9" transform="translate(0,0)"/>
<path d="" fill="#516FEB" transform="translate(0,0)"/>
<path d="" fill="#5070EB" transform="translate(0,0)"/>
<path d="" fill="#516ADE" transform="translate(0,0)"/>
<path d="" fill="#5371ED" transform="translate(0,0)"/>
<path d="" fill="#4F6FE6" transform="translate(0,0)"/>
<path d="" fill="#4E6FE9" transform="translate(0,0)"/>
<path d="" fill="#506EE8" transform="translate(0,0)"/>
<path d="" fill="#516FE7" transform="translate(0,0)"/>
<path d="" fill="#4E69DC" transform="translate(0,0)"/>
<path d="" fill="#4A66DC" transform="translate(0,0)"/>
<path d="" fill="#4C68D8" transform="translate(0,0)"/>
<path d="" fill="#4C69D8" transform="translate(0,0)"/>
<path d="" fill="#4861CF" transform="translate(0,0)"/>
<path d="" fill="#4461CD" transform="translate(0,0)"/>
<path d="" fill="#4C65CE" transform="translate(0,0)"/>
<path d="" fill="#4961C8" transform="translate(0,0)"/>
<path d="" fill="#495FC3" transform="translate(0,0)"/>
<path d="" fill="#090B12" transform="translate(0,0)"/>
</svg>
